<svg xmlns="http://www.w3.org/2000/svg" width="1200" height="800" viewBox="0 0 1200 800" preserveAspectRatio="xMidYMid slice">
  <defs>
    <linearGradient id="g" x1="0" x2="1">
      <stop offset="0%" stop-color="#1b1b1b"/>
      <stop offset="100%" stop-color="#0b0b0b"/>
    </linearGradient>
  </defs>
  <rect width="1200" height="800" fill="url(#g)" />
  <!-- stylized dingo silhouette -->
  <g transform="translate(150,120) scale(1.2)">
    <path d="M350 220c-8-14-26-28-44-36-18-8-38-10-56-16-18-6-36-18-48-32-12-14-18-30-22-46-4-16-4-34 2-50 6-16 18-30 34-38 16-8 36-10 54-6 18 4 34 14 48 26 14 12 26 26 38 40 12 14 24 28 38 40 14 12 30 22 46 30 16 8 34 14 52 18 18 4 36 6 54 6 18 0 36-2 52-8 16-6 30-16 42-28 12-12 22-26 30-40 8-14 14-28 22-42 8-14 18-28 30-40 12-12 28-20 44-24 16-4 34-2 50 6 16 8 28 22 34 38 6 16 6 34 2 50-4 16-12 32-22 46-10 14-26 26-42 36-16 10-34 18-54 24-20 6-42 8-66 6-24-2-48-8-72-18-24-10-46-24-66-40-20-16-38-34-56-52-18-18-36-36-56-52-20-16-42-30-66-40-24-10-48-16-72-18-24-2-46 0-66 6-20 6-38 14-54 24-16 10-30 22-42 36-12 14-20 30-24 46-4 16-2 34 6 50 8 16 22 30 38 40 16 10 34 18 52 22 18 4 36 6 54 6 18 0 36-2 54-6 18-4 36-12 52-22 16-10 30-24 38-40 8-16 10-34 6-50-4-16-12-32-24-46z" fill="#0f1720" opacity="0.95"/>
  </g>
  <!-- subtle overlay pattern -->
  <g opacity="0.05" fill="#ffffff">
    <circle cx="200" cy="120" r="20" />
    <circle cx="400" cy="80" r="14" />
    <circle cx="800" cy="200" r="30" />
  </g>
</svg>
